<?xml version="1.0" encoding="UTF-8"?>
<svg xmlns="http://www.w3.org/2000/svg" width="1024" height="1024" viewBox="0 0 1024 1024">
  <defs>
    <linearGradient id="hillG" x1="0" y1="0" x2="0" y2="1">
      <stop offset="0" stop-color="#DDEBE0"/>
      <stop offset="1" stop-color="#2F6B4F"/>
    </linearGradient>
    <linearGradient id="sunG" x1="0" y1="0" x2="1" y2="1">
      <stop offset="0" stop-color="#FFFFFF" stop-opacity="0.95"/>
      <stop offset="1" stop-color="#D63B3B" stop-opacity="0.15"/>
    </linearGradient>
    <linearGradient id="dogOrange" x1="0" y1="0" x2="1" y2="1">
      <stop offset="0" stop-color="#F6B05C"/>
      <stop offset="1" stop-color="#C96A1F"/>
    </linearGradient>
    <linearGradient id="dogWhite" x1="0" y1="0" x2="0" y2="1">
      <stop offset="0" stop-color="#FFFFFF"/>
      <stop offset="1" stop-color="#EDE6DD"/>
    </linearGradient>
    <linearGradient id="collarG" x1="0" y1="0" x2="1" y2="1">
      <stop offset="0" stop-color="#2F6B4F"/>
      <stop offset="1" stop-color="#1F4D38"/>
    </linearGradient>
    <filter id="softShadow" x="-20%" y="-20%" width="140%" height="140%">
      <feDropShadow dx="0" dy="10" stdDeviation="12" flood-color="#000000" flood-opacity="0.18"/>
    </filter>
  </defs>

<rect x="0" y="0" width="1024" height="1024" rx="220" ry="220" fill="#FFFFFF"/>
<rect x="18" y="18" width="988" height="988" rx="220" ry="220" fill="#F7F2EA" stroke="#2F6B4F" stroke-width="26"/>
<circle cx="512" cy="520" r="360" fill="#FFFFFF" opacity="0.92"/>
<g transform="translate(512,585) scale(2.95)">
<g>
<circle cx="0" cy="-40" r="92" fill="url(#dogWhite)"/>
<path d="M -92 -40 A 92 92 0 0 0 -5 45 A 92 92 0 0 1 -92 -40 Z" fill="url(#dogOrange)" opacity="0.92"/>
<path d="M 20 -120 C 55 -115 78 -92 82 -55 C 86 -25 63 -10 42 -8 C 25 -6 18 -14 14 -30 C 8 -55 -5 -80 20 -120 Z" fill="url(#dogOrange)" opacity="0.92"/>
<path d="M -78 -115 C -118 -95 -120 -50 -95 -20 C -78 0 -55 -6 -52 -30 C -46 -72 -52 -100 -78 -115 Z" fill="url(#dogOrange)"/>
<path d="M -64 -92 C -86 -76 -86 -48 -72 -30 C -60 -14 -46 -18 -44 -36 C -40 -62 -44 -82 -64 -92 Z" fill="#B55313" opacity="0.55"/>
<path d="M 58 -122 C 98 -98 104 -58 82 -26 C 66 -2 40 -6 38 -34 C 34 -78 36 -108 58 -122 Z" fill="url(#dogOrange)"/>
<path d="M 52 -96 C 74 -80 78 -54 66 -34 C 56 -18 42 -20 40 -40 C 38 -64 40 -84 52 -96 Z" fill="#B55313" opacity="0.55"/>
<path d="M -18 -122 C -2 -126 12 -126 28 -122 C 22 -70 22 -40 25 -15 C 26 -2 18 10 6 12 C -8 14 -22 4 -23 -12 C -25 -45 -23 -75 -18 -122 Z" fill="url(#dogWhite)"/>
<ellipse cx="-32" cy="-52" rx="18" ry="22" fill="#1B1B1B"/>
<ellipse cx="32" cy="-52" rx="18" ry="22" fill="#1B1B1B"/>
<circle cx="-36" cy="-58" r="6" fill="#FFFFFF"/>
<circle cx="28" cy="-58" r="6" fill="#FFFFFF"/>
<circle cx="-28" cy="-46" r="3" fill="#FFFFFF" opacity="0.85"/>
<circle cx="36" cy="-46" r="3" fill="#FFFFFF" opacity="0.85"/>
<ellipse cx="0" cy="-14" rx="54" ry="40" fill="url(#dogWhite)"/>
<path d="M -14 -26 C -10 -40 10 -40 14 -26 C 18 -10 10 4 0 4 C -10 4 -18 -10 -14 -26 Z" fill="#3A2F2A"/>
<path d="M -28 -8 C -12 12 12 12 28 -8" stroke="#3A2F2A" stroke-width="6" fill="none" stroke-linecap="round"/>
<path d="M -10 5 C -6 18 6 18 10 5" fill="#D05B65" opacity="0.9"/>
<ellipse cx="-48" cy="56" rx="44" ry="32" fill="url(#dogWhite)"/>
<ellipse cx="48" cy="56" rx="44" ry="32" fill="url(#dogWhite)"/>
<path d="M -58 52 C -50 42 -36 42 -28 52 C -36 66 -50 66 -58 52 Z" fill="#E2D8CD"/>
<path d="M 28 52 C 36 42 50 42 58 52 C 50 66 36 66 28 52 Z" fill="#E2D8CD"/>
<path d="M -78 20 C -35 52 35 52 78 20 L 78 36 C 35 68 -35 68 -78 36 Z" fill="url(#collarG)"/>
<path d="M 0 78 C -20 58 -44 56 -52 38 C -60 18 -44 0 -22 0 C -10 0 -2 6 0 10 C 2 6 10 0 22 0 C 44 0 60 18 52 38 C 44 56 20 58 0 78 Z" fill="#D63B3B"/>
<circle cx="-10" cy="32" r="4.5" fill="#FFFFFF"/>
<circle cx="0" cy="26" r="5" fill="#FFFFFF"/>
<circle cx="10" cy="32" r="4.5" fill="#FFFFFF"/>
<ellipse cx="0" cy="40" rx="10" ry="8" fill="#FFFFFF"/>
</g></g>
<circle cx="512" cy="520" r="370" fill="none" stroke="#F2B544" stroke-width="18" opacity="0.85"/>
<title>CiCwtch App Icon (Base)</title>

</svg>
