<?xml version="1.0" encoding="UTF-8"?>
<svg id="Layer_1" data-name="Layer 1" xmlns="http://www.w3.org/2000/svg" viewBox="0 0 1366 768">
  <defs>
    <style>
      .cls-1 {
        fill: #06090d;
      }
    </style>
  </defs>
  <path class="cls-1" d="M954.07,655.07H411.93V112.93h542.15v542.15ZM427.35,639.65h511.3V128.35h-511.3v511.3Z"/>
  <g>
    <g>
      <path class="cls-1" d="M487.83,476.79l-9.48-16.75h-4.06v16.75h-8.62v-42.97h16.13c3.32,0,6.16.59,8.5,1.75s4.09,2.75,5.26,4.74c1.17,1.99,1.75,4.22,1.75,6.68,0,2.83-.82,5.39-2.46,7.67-1.64,2.28-4.08,3.85-7.33,4.71l10.28,17.42h-9.97ZM474.28,453.58h7.2c2.34,0,4.08-.56,5.23-1.69,1.15-1.13,1.72-2.7,1.72-4.71s-.58-3.5-1.72-4.59c-1.15-1.09-2.89-1.63-5.23-1.63h-7.2v12.62Z"/>
      <path class="cls-1" d="M535.05,462.32h-24.93c.2,2.46,1.07,4.39,2.59,5.79,1.52,1.4,3.39,2.09,5.6,2.09,3.2,0,5.48-1.38,6.83-4.13h9.3c-.98,3.28-2.87,5.98-5.66,8.1-2.79,2.11-6.22,3.17-10.28,3.17-3.28,0-6.23-.73-8.83-2.19-2.61-1.46-4.64-3.52-6.1-6.19-1.46-2.67-2.19-5.74-2.19-9.23s.72-6.63,2.15-9.3c1.44-2.67,3.45-4.72,6.03-6.16,2.59-1.44,5.56-2.15,8.93-2.15s6.15.7,8.71,2.09c2.57,1.4,4.56,3.38,5.97,5.94,1.42,2.57,2.12,5.51,2.12,8.84,0,1.23-.08,2.34-.25,3.32ZM526.37,456.54c-.04-2.22-.84-3.99-2.4-5.33-1.56-1.33-3.47-2-5.73-2-2.14,0-3.93.65-5.39,1.94-1.46,1.29-2.35,3.09-2.68,5.39h16.19Z"/>
      <path class="cls-1" d="M541.22,450.47c1.44-2.65,3.43-4.7,5.97-6.16,2.54-1.46,5.46-2.19,8.74-2.19,4.23,0,7.73,1.06,10.5,3.17,2.77,2.11,4.63,5.08,5.57,8.9h-9.3c-.49-1.48-1.32-2.64-2.49-3.48-1.17-.84-2.62-1.26-4.34-1.26-2.46,0-4.41.89-5.85,2.68-1.44,1.79-2.15,4.32-2.15,7.6s.72,5.76,2.15,7.54c1.44,1.79,3.39,2.68,5.85,2.68,3.49,0,5.77-1.56,6.83-4.68h9.3c-.94,3.69-2.81,6.63-5.6,8.8-2.79,2.18-6.28,3.26-10.47,3.26-3.28,0-6.2-.73-8.74-2.19-2.55-1.46-4.54-3.51-5.97-6.16-1.44-2.65-2.15-5.73-2.15-9.26s.72-6.62,2.15-9.27Z"/>
      <path class="cls-1" d="M583.85,475.16c-2.63-1.46-4.69-3.52-6.19-6.19-1.5-2.67-2.25-5.74-2.25-9.23s.77-6.57,2.31-9.24c1.54-2.67,3.64-4.73,6.31-6.19s5.64-2.19,8.93-2.19,6.26.73,8.93,2.19c2.67,1.46,4.77,3.52,6.31,6.19,1.54,2.67,2.31,5.75,2.31,9.24s-.79,6.57-2.37,9.23c-1.58,2.67-3.72,4.73-6.4,6.19-2.69,1.46-5.69,2.19-9.02,2.19s-6.24-.73-8.87-2.19ZM597.12,468.7c1.37-.76,2.47-1.9,3.29-3.42.82-1.52,1.23-3.37,1.23-5.54,0-3.24-.85-5.74-2.55-7.48-1.7-1.74-3.79-2.62-6.25-2.62s-4.53.87-6.19,2.62c-1.66,1.74-2.49,4.24-2.49,7.48s.81,5.74,2.43,7.48c1.62,1.75,3.66,2.62,6.13,2.62,1.56,0,3.03-.38,4.4-1.14Z"/>
      <path class="cls-1" d="M636.6,443.64c1.93,1.01,3.45,2.31,4.56,3.91v-4.86h8.68v34.35c0,3.16-.64,5.98-1.91,8.46-1.27,2.48-3.18,4.45-5.73,5.91-2.55,1.46-5.62,2.19-9.23,2.19-4.84,0-8.82-1.13-11.91-3.39-3.1-2.26-4.85-5.34-5.26-9.23h8.56c.45,1.56,1.43,2.8,2.92,3.72,1.5.92,3.31,1.39,5.45,1.39,2.5,0,4.54-.75,6.1-2.25,1.56-1.5,2.34-3.77,2.34-6.8v-5.3c-1.11,1.6-2.64,2.93-4.59,4-1.95,1.07-4.18,1.6-6.68,1.6-2.87,0-5.5-.74-7.88-2.22-2.38-1.48-4.26-3.56-5.63-6.25-1.38-2.69-2.06-5.78-2.06-9.27s.69-6.5,2.06-9.17c1.37-2.67,3.24-4.72,5.6-6.16,2.36-1.44,5-2.15,7.91-2.15,2.54,0,4.78.5,6.71,1.51ZM639.92,454.35c-.82-1.5-1.93-2.65-3.32-3.45-1.4-.8-2.89-1.2-4.49-1.2s-3.08.39-4.43,1.17c-1.35.78-2.45,1.92-3.29,3.42-.84,1.5-1.26,3.27-1.26,5.32s.42,3.85,1.26,5.39c.84,1.54,1.95,2.72,3.32,3.54,1.38.82,2.84,1.23,4.4,1.23s3.1-.4,4.49-1.2c1.39-.8,2.5-1.95,3.32-3.45.82-1.5,1.23-3.29,1.23-5.39s-.41-3.89-1.23-5.39Z"/>
      <path class="cls-1" d="M686.27,446.04c2.5,2.57,3.76,6.15,3.76,10.74v20.01h-8.62v-18.84c0-2.71-.68-4.79-2.03-6.25-1.35-1.46-3.2-2.19-5.54-2.19s-4.26.73-5.63,2.19c-1.38,1.46-2.06,3.54-2.06,6.25v18.84h-8.62v-34.11h8.62v4.25c1.15-1.48,2.62-2.64,4.4-3.48s3.74-1.26,5.88-1.26c4.06,0,7.35,1.28,9.85,3.85Z"/>
      <path class="cls-1" d="M697.93,437.17c-1.01-.96-1.51-2.16-1.51-3.6s.5-2.64,1.51-3.6c1.01-.96,2.27-1.45,3.79-1.45s2.78.48,3.79,1.45c1.01.97,1.51,2.17,1.51,3.6s-.5,2.64-1.51,3.6c-1.01.97-2.27,1.45-3.79,1.45s-2.78-.48-3.79-1.45ZM705.96,442.68v34.11h-8.62v-34.11h8.62Z"/>
      <path class="cls-1" d="M719.2,475.84c-2.22-1-3.97-2.37-5.26-4.09s-2-3.63-2.12-5.73h8.68c.16,1.31.81,2.4,1.94,3.26,1.13.86,2.53,1.29,4.22,1.29s2.92-.33,3.85-.99c.92-.66,1.39-1.5,1.39-2.52,0-1.11-.57-1.94-1.69-2.49-1.13-.55-2.92-1.16-5.39-1.82-2.55-.62-4.63-1.25-6.25-1.91-1.62-.66-3.02-1.66-4.19-3.02-1.17-1.35-1.75-3.18-1.75-5.48,0-1.89.54-3.61,1.63-5.17,1.09-1.56,2.65-2.79,4.68-3.69,2.03-.9,4.42-1.35,7.17-1.35,4.06,0,7.31,1.02,9.73,3.05,2.42,2.03,3.76,4.77,4,8.22h-8.25c-.12-1.35-.69-2.43-1.69-3.23-1.01-.8-2.35-1.2-4.03-1.2-1.56,0-2.76.29-3.6.86-.84.58-1.26,1.38-1.26,2.4,0,1.15.57,2.02,1.72,2.62,1.15.6,2.93,1.2,5.36,1.82,2.46.62,4.49,1.25,6.1,1.91,1.6.66,2.99,1.67,4.16,3.05,1.17,1.38,1.78,3.19,1.82,5.45,0,1.97-.54,3.74-1.63,5.3-1.09,1.56-2.65,2.78-4.68,3.66-2.03.88-4.4,1.32-7.11,1.32s-5.29-.5-7.51-1.51Z"/>
      <path class="cls-1" d="M777.77,462.32h-24.93c.2,2.46,1.07,4.39,2.59,5.79,1.52,1.4,3.39,2.09,5.6,2.09,3.2,0,5.48-1.38,6.83-4.13h9.3c-.98,3.28-2.87,5.98-5.66,8.1-2.79,2.11-6.22,3.17-10.28,3.17-3.28,0-6.23-.73-8.83-2.19-2.61-1.46-4.64-3.52-6.1-6.19-1.46-2.67-2.19-5.74-2.19-9.23s.72-6.63,2.15-9.3c1.44-2.67,3.45-4.72,6.03-6.16,2.59-1.44,5.56-2.15,8.93-2.15s6.15.7,8.71,2.09c2.57,1.4,4.56,3.38,5.97,5.94,1.42,2.57,2.12,5.51,2.12,8.84,0,1.23-.08,2.34-.25,3.32ZM769.09,456.54c-.04-2.22-.84-3.99-2.4-5.33-1.56-1.33-3.47-2-5.73-2-2.14,0-3.93.65-5.39,1.94-1.46,1.29-2.35,3.09-2.68,5.39h16.19Z"/>
      <path class="cls-1" d="M783.86,450.44c1.37-2.67,3.25-4.72,5.63-6.16,2.38-1.44,5.03-2.15,7.94-2.15,2.22,0,4.33.48,6.34,1.45,2.01.97,3.61,2.25,4.8,3.85v-16.19h8.74v45.56h-8.74v-5.05c-1.07,1.68-2.57,3.04-4.49,4.06-1.93,1.03-4.17,1.54-6.71,1.54-2.87,0-5.5-.74-7.88-2.22-2.38-1.48-4.26-3.56-5.63-6.25-1.38-2.69-2.06-5.78-2.06-9.27s.69-6.5,2.06-9.17ZM807.4,454.35c-.82-1.5-1.93-2.65-3.32-3.45-1.4-.8-2.89-1.2-4.49-1.2s-3.08.39-4.43,1.17c-1.35.78-2.45,1.92-3.29,3.42-.84,1.5-1.26,3.27-1.26,5.32s.42,3.85,1.26,5.39c.84,1.54,1.95,2.72,3.32,3.54,1.38.82,2.84,1.23,4.4,1.23s3.1-.4,4.49-1.2c1.39-.8,2.5-1.95,3.32-3.45.82-1.5,1.23-3.29,1.23-5.39s-.41-3.89-1.23-5.39Z"/>
      <path class="cls-1" d="M853.61,443.67c1.95-1.02,4.18-1.54,6.68-1.54,2.91,0,5.55.72,7.91,2.15,2.36,1.44,4.23,3.48,5.6,6.13,1.37,2.65,2.06,5.72,2.06,9.2s-.69,6.58-2.06,9.27c-1.38,2.69-3.24,4.77-5.6,6.25-2.36,1.48-5,2.22-7.91,2.22-2.55,0-4.77-.5-6.68-1.51-1.91-1-3.44-2.31-4.59-3.91v4.86h-8.62v-45.56h8.62v16.44c1.11-1.64,2.64-2.98,4.59-4ZM865.8,454.29c-.84-1.5-1.95-2.64-3.32-3.42-1.38-.78-2.86-1.17-4.46-1.17s-3.03.4-4.4,1.2c-1.38.8-2.48,1.96-3.33,3.48-.84,1.52-1.26,3.3-1.26,5.36s.42,3.84,1.26,5.36c.84,1.52,1.95,2.68,3.33,3.48,1.37.8,2.84,1.2,4.4,1.2s3.09-.41,4.46-1.23c1.37-.82,2.48-1.99,3.32-3.51.84-1.52,1.26-3.32,1.26-5.42s-.42-3.83-1.26-5.32Z"/>
      <path class="cls-1" d="M912.81,442.68l-21.12,50.24h-9.17l7.39-16.99-13.67-33.25h9.67l8.8,23.83,8.93-23.83h9.17Z"/>
      <path class="cls-1" d="M501.31,505.1v42.97h-8.62v-18.29h-18.41v18.29h-8.62v-42.97h8.62v17.67h18.41v-17.67h8.62Z"/>
      <path class="cls-1" d="M556.63,505.1v42.97h-8.62v-27.95l-11.51,27.95h-6.53l-11.57-27.95v27.95h-8.62v-42.97h9.79l13.67,31.95,13.67-31.95h9.73Z"/>
      <path class="cls-1" d="M587.29,548.08l-9.48-16.75h-4.06v16.75h-8.62v-42.97h16.13c3.32,0,6.16.59,8.5,1.75,2.34,1.17,4.09,2.75,5.26,4.74,1.17,1.99,1.75,4.22,1.75,6.68,0,2.83-.82,5.39-2.46,7.67-1.64,2.28-4.08,3.85-7.33,4.71l10.28,17.42h-9.97ZM573.74,524.87h7.2c2.34,0,4.08-.56,5.23-1.69,1.15-1.13,1.72-2.7,1.72-4.71s-.58-3.5-1.72-4.59c-1.15-1.09-2.89-1.63-5.23-1.63h-7.2v12.62Z"/>
      <path class="cls-1" d="M603.93,515.17c1.91-3.34,4.51-5.95,7.82-7.82,3.3-1.87,7.01-2.8,11.11-2.8,4.8,0,9.01,1.23,12.62,3.7,3.61,2.46,6.14,5.87,7.57,10.22h-9.91c-.99-2.05-2.37-3.59-4.16-4.62-1.79-1.02-3.85-1.54-6.19-1.54-2.5,0-4.73.59-6.68,1.75-1.95,1.17-3.47,2.82-4.56,4.96-1.09,2.14-1.63,4.64-1.63,7.51s.54,5.33,1.63,7.48c1.09,2.15,2.61,3.82,4.56,4.99,1.95,1.17,4.18,1.75,6.68,1.75,2.34,0,4.4-.52,6.19-1.57,1.79-1.05,3.17-2.59,4.16-4.65h9.91c-1.44,4.39-3.95,7.81-7.54,10.25-3.59,2.44-7.81,3.66-12.65,3.66-4.1,0-7.81-.93-11.11-2.8-3.3-1.87-5.91-4.46-7.82-7.79-1.91-3.33-2.86-7.1-2.86-11.33s.95-8.01,2.86-11.36Z"/>
    </g>
    <g>
      <g>
        <path d="M744.91,226.16v90.61h-18.17v-58.94l-24.27,58.94h-13.76l-24.4-58.94v58.94h-18.17v-90.61h20.64l28.82,67.37,28.82-67.37h20.51Z"/>
        <path d="M820.1,226.16v14.67h-24.14v75.94h-18.17v-75.94h-24.15v-14.67h66.46Z"/>
        <path d="M885.6,231.74c7.22,3.72,12.81,9.02,16.75,15.9,3.94,6.88,5.91,14.86,5.91,23.95s-1.97,17.03-5.91,23.82c-3.94,6.79-9.52,12.05-16.75,15.77-7.23,3.72-15.6,5.58-25.12,5.58h-31.67v-90.61h31.67c9.52,0,17.89,1.86,25.12,5.58ZM881.9,293.53c5.19-5.19,7.79-12.5,7.79-21.94s-2.6-16.81-7.79-22.13c-5.19-5.32-12.55-7.98-22.07-7.98h-12.85v59.84h12.85c9.52,0,16.88-2.6,22.07-7.79Z"/>
      </g>
      <g>
        <path d="M665.58,348.2c2.68-1.54,5.74-2.31,9.19-2.31v13.58h-3.42c-4.07,0-7.13.96-9.19,2.86-2.06,1.91-3.1,5.24-3.1,9.98v25.5h-12.94v-51.19h12.94v7.95c1.66-2.71,3.84-4.84,6.51-6.38Z"/>
        <path d="M728.55,376.1h-37.42c.31,3.7,1.6,6.59,3.88,8.69,2.28,2.09,5.08,3.14,8.41,3.14,4.8,0,8.22-2.06,10.26-6.19h13.95c-1.48,4.93-4.31,8.98-8.5,12.15-4.19,3.17-9.33,4.76-15.43,4.76-4.93,0-9.35-1.09-13.26-3.28-3.91-2.19-6.96-5.28-9.15-9.29-2.19-4-3.28-8.62-3.28-13.86s1.08-9.95,3.23-13.95c2.16-4,5.17-7.08,9.06-9.24,3.88-2.16,8.35-3.23,13.4-3.23s9.22,1.05,13.07,3.14c3.85,2.09,6.84,5.07,8.96,8.92,2.13,3.85,3.19,8.27,3.19,13.26,0,1.85-.12,3.51-.37,4.99ZM715.52,367.42c-.06-3.33-1.26-5.99-3.6-7.99-2.34-2-5.21-3-8.59-3-3.2,0-5.9.97-8.09,2.91-2.19,1.94-3.53,4.64-4.02,8.08h24.3Z"/>
        <path d="M736.94,358.27c2.06-4,4.87-7.08,8.41-9.24,3.54-2.16,7.5-3.23,11.87-3.23,3.82,0,7.16.77,10.03,2.31,2.86,1.54,5.16,3.48,6.88,5.82v-7.3h13.03v51.19h-13.03v-7.48c-1.66,2.4-3.96,4.39-6.88,5.96-2.93,1.57-6.3,2.36-10.12,2.36-4.31,0-8.24-1.11-11.78-3.33-3.54-2.22-6.34-5.34-8.41-9.38-2.06-4.03-3.1-8.67-3.1-13.91s1.03-9.76,3.1-13.77ZM772.29,364.14c-1.23-2.25-2.9-3.97-4.99-5.17-2.1-1.2-4.34-1.8-6.75-1.8s-4.62.59-6.65,1.76c-2.03,1.17-3.68,2.88-4.94,5.13-1.26,2.25-1.89,4.91-1.89,7.99s.63,5.78,1.89,8.08c1.26,2.31,2.92,4.08,4.99,5.31,2.06,1.23,4.26,1.85,6.61,1.85s4.65-.6,6.75-1.8c2.09-1.2,3.76-2.92,4.99-5.17,1.23-2.25,1.85-4.94,1.85-8.08s-.62-5.84-1.85-8.09Z"/>
        <path d="M798.22,358.27c2.06-4,4.88-7.08,8.45-9.24,3.57-2.16,7.55-3.23,11.92-3.23,3.33,0,6.5.72,9.52,2.17,3.02,1.45,5.42,3.37,7.21,5.78v-24.3h13.12v68.38h-13.12v-7.58c-1.6,2.53-3.85,4.56-6.75,6.1-2.9,1.54-6.25,2.31-10.07,2.31-4.31,0-8.26-1.11-11.83-3.33-3.57-2.22-6.39-5.34-8.45-9.38-2.06-4.03-3.1-8.67-3.1-13.91s1.03-9.76,3.1-13.77ZM833.57,364.14c-1.23-2.25-2.9-3.97-4.99-5.17-2.1-1.2-4.34-1.8-6.75-1.8s-4.62.59-6.65,1.76c-2.03,1.17-3.68,2.88-4.94,5.13-1.26,2.25-1.89,4.91-1.89,7.99s.63,5.78,1.89,8.08c1.26,2.31,2.92,4.08,4.99,5.31,2.06,1.23,4.26,1.85,6.61,1.85s4.65-.6,6.75-1.8c2.09-1.2,3.76-2.92,4.99-5.17,1.23-2.25,1.85-4.94,1.85-8.08s-.62-5.84-1.85-8.09Z"/>
        <path d="M908.26,346.63l-31.69,75.4h-13.77l11.09-25.5-20.51-49.9h14.51l13.21,35.76,13.4-35.76h13.77Z"/>
      </g>
    </g>
    <path d="M598.27,389.82h-119.9c-13.89,0-25.18-11.3-25.18-25.18v-119.9c0-13.89,11.3-25.18,25.18-25.18h119.9c13.89,0,25.18,11.3,25.18,25.18v119.9c0,13.89-11.3,25.18-25.18,25.18ZM478.37,234.64c-5.57,0-10.1,4.53-10.1,10.1v119.9c0,5.57,4.53,10.1,10.1,10.1h119.9c5.57,0,10.1-4.53,10.1-10.1v-119.9c0-5.57-4.53-10.1-10.1-10.1h-119.9Z"/>
    <polygon class="cls-1" points="521.1 351.44 484.11 314.45 497.83 300.73 520.97 323.87 578.75 264.93 592.6 278.51 521.1 351.44"/>
  </g>
</svg>